<svg version="1.1" viewBox="0 0 207.32 207.88" xmlns="http://www.w3.org/2000/svg">
  <g transform="translate(-8.8422 -8.5622)">
    <path d="m189.66 214.2c-17.907-15.859-34.564-33.072-51.751-49.704-18.863 10.361-41.083 16.114-62.424 10.854-44.227-9.6656-75.656-58.628-64.314-102.8 9.6328-38.662 49.353-68.943 89.647-63.31 41.203 4.6181 77.321 41.923 76.476 84.12 0.14902 16.001-5.8338 31.091-13.137 45.044 15.998 16.458 32.843 32.138 47.936 49.439 9.432 9.7944 1.1479 26.856-11.602 28.333-3.688 0.67361-7.6532 0.0686-10.83-1.9782zm-73.444-58.837c24.583-8.9285 42.736-33.166 43.133-59.486 1.5474-28.86-17.357-58.15-45.637-66.067-26.04-8.1229-57.376-0.21689-73.632 22.452-19.177 24.9-17.848 63.439 4.4128 86.04 17.652 19.51 47.212 25.83 71.724 17.061zm-33.539-11.224c-0.7356-9.9853-17.045-13.558-23.53-6.4705-12.17 0.87704-14.151-13.751-7.6528-20.978-1.4025-8.7893-6.3283-14.878-14.846-16.491-6.4839-7.6954-1.2538-18.959 8.8099-18.422 6.2233-7.1758 7.7793-16.004 1.8519-23.397 1.2934-11.082 13.557-12.108 20.989-6.7631 11.032 1.7646 13.413-10.106 17.165-16.313 9.1248-2.0937 19.293-0.11192 17.39 11.245 7.9527 4.7134 16.312 7.9837 23.538 0.43844 7.1702 2.5495 17.441 11.927 7.1812 18.266-0.70457 8.6523 3.6414 20.82 14.786 18.397 3.6083 7.1322 3.2718 21.625-8.6352 19.308-5.6778 5.3039-9.4125 16.24-2.5528 22.623 1.1146 12.395-13.446 13.855-21.058 7.9883-13.694-2.4012-11.687 15.66-22.231 17.377-4.6021 0.64918-10.648-1.5446-11.205-6.8077zm23.197-23.827c17.724-7.8945 22.693-33.454 9.6168-47.652-11.254-13.965-34.596-14.16-46.018-0.29817-12.256 12.133-9.8914 33.841 3.4384 44.196 8.996 7.7862 22.409 9.0178 32.962 3.7542zm-21.073-15.214c-10.312-5.6085-8.2602-22.585 2.921-25.767 12.483-4.913 23.982 11.237 16.252 21.847-3.9494 6.2459-13.054 7.2893-19.173 3.9197z"/>
  </g>
</svg>
