<svg version="1.1" viewBox="0 0 419.86 421.02" xmlns="http://www.w3.org/2000/svg">
  <g transform="translate(-45.57 -39.489)">
    <path d="m242 458.45c-19.219-14.05-46.985-4.3968-68.639-15.335-69.375-20.958-117.59-90.767-117.73-162.48-9.4243-16.069-16.881-40.026-0.051475-55.595-1.5387-73.089 46.415-145.64 117.17-167.41 21.395-10.815 48.703-1.6482 67.885-15.021 19.344-10.486 33.911 9.0136 52.471 7.0127 70.524 1.0936 135.51 52.193 155.13 119.61 10.031 23.273 2.5953 50.718 16.709 71.466 3.6114 23.686-14.27 41.521-10.956 66.096-10.632 72.088-70.882 134.78-144.1 143.13-22.293-3.993-38.134 10.548-59.116 10.586l-4.7022-0.72299-4.0695-1.3403zm-10.421-19.104c-14.891-6.4748-40.65-7.0263-57.195-18.875-53.025-29.205-92.935-82.135-104.39-141.79-9.2795-14.393-2.308 19.177-1.5431 24.301 8.6316 54.002 41.201 107.36 94.051 127.39 21.669 8.057 46.354 13.794 68.959 10.705zm85-0.11648c49.573-6.8147 93.51-41.126 112.4-87.423 10.706-24.259 15.996-50.639 18.136-76.941-11.616 5.4869-6.7789 33.706-17.553 46.155-17.049 39.76-46.556 74.223-85.354 94.051-18.467 13.182-46.536 16.976-63.63 24.421 9.1504 6.4896 25.391 0.14795 36-0.26324zm35.5-43.326c25.16-16.646 46.249-39.846 59.488-67.006-17.236-9.1508-34.961-17.447-52.847-25.256-13.311 19.209-28.827 38.599-50.338 48.937 7.4708 18.004 14.838 37.657 25.204 53.582 6.8817-1.6212 12.434-6.8432 18.494-10.256zm-161.54-16.74c7.2495-14.693 17.979-30.495-3.4742-37.174-16.139-8.031-23.754-34.681-38.261-37.258-16.486 7.0792-33.119 14.489-49.016 22.478 15.023 32.652 42.74 58.556 73.186 77.193 9.1374 6.1947 12.496-20.097 17.565-25.239zm79.673-27.9c53.756-5.8276 94.017-60.488 86.792-113.44-4.8712-51.926-55.297-93.338-107.08-88.915-50.074 1.6513-93.772 45.418-95.469 95.492-4.0026 55.368 43.867 108.64 99.94 107.88 5.2884 0.062 10.58-0.28716 15.818-1.016zm-199.64-127.55c1.8946-47.476 33.369-88.325 68.201-118.04 26.094-22.374 58.517-36.228 92.293-41.733-7.2522-11.918-38.05-0.99951-53.098 1.4964-48.284 12.074-86.192 51.808-100.77 98.764-6.2939 19.831-11.834 42.049-11.32 62.067 1.7957 0.0379 5.4631 0.70686 4.6964-2.5518zm376.45-1.6204c-4.9624-53.366-25.796-110.32-73.535-139.56-27.023-16.596-59.351-24.547-90.937-23.464-12.592 7.1207 19.644 7.2955 25.225 10.931 67.617 18.914 121.15 78.724 133.06 147.86-0.21302 4.4861 8.0786 15.222 6.1905 4.235zm-35.516-48.51c-7.4257-22.75-26.125-41.927-44.311-57.447-13.683-9.7431-37.327-36.034-42.15-5.1981-6.5024 17.924-26.054 41.134 1.996 49.353 14.064 8.7241 23.176 26.809 32.699 37.31 17.264-7.9858 34.619-15.783 51.766-24.017zm-256.93 22.935c8.4839-19.438 26.872-32.904 43.545-45.29 6.7866-14.47-11.676-35.642-16.838-51.924-13.141-8.2054-33.644 15.84-46.265 25.723-13.394 13.91-26.757 28.6-34.874 46.316 16.314 10.846 35.435 18.129 53.59 25.743l0.67041-0.10797z"/>
  </g>
</svg>
