<svg version="1.1" viewBox="0 0 376.29 448.81" xmlns="http://www.w3.org/2000/svg">
  <g transform="translate(-34.854 -33.594)">
    <path d="m105.83 464.89c-17.67-10.852-26.592-26.996-22.448-47.88-0.58537-106.11-0.25988-212.23-0.35857-318.35-17.991 0.81043-39.276-4.3324-45.984-23.248-9.0666-20.567 11.664-44.854 33.02-41.504h317.46c19.046 6.9201 30.852 31.407 18.651 49.234-6.8323 15.193 0.59822 35.529-1.7264 52.791 0.47326 103.36 1.5851 206.75-0.19022 310.09-13.651 13.25-28.362 25.693-44.098 36.382-16.523-3.6339-29.727-37.595-45.923-24.675-14.353 13.898-34.4 35.709-50.339 10.523-10.249-11.387-22.769-22.541-33.508-4.7628-11.89 16.822-32.066 23.385-45.177 3.646-9.8809-13.892-22.462-18.427-32.989-2.7309-17.667 17.142-23.902 24.678-46.395 0.47958zm38.511-11.77c11.734-14.17 27.77-23.634 40.51-4.8898 10.161 6.2974 19.836 26.921 29.853 10.7 10.995-6.9505 20.605-25.364 33.874-21.407 11.98 9.0407 23.005 19.257 34.445 28.957 12.49-10.103 23.63-22.172 37.551-30.289 12.929 2.249 21.563 16.811 32.676 24.465 5.517 8.963 11.015 2.9882 16.514-2.5592 6.3686-8.4461 21.777-12.582 22.259-23.535-0.34061-106.93 0.82488-213.88-0.84501-320.79 0.12114-13.95-1.9716-34.133-15.561-40.359h-288.62c11.975 17.914 9.0883 40.119 9.8297 60.593 0.39988 101.69 0.10934 203.38 0.19544 305.07 10.62 9.0838 20.997 18.462 31.818 27.303 5.3037-4.2526 10.354-8.8183 15.5-13.259zm97.998-74.717c-11.366-20.663 29.023-10.527 41.876-13.214 22.982 0.30042 46.184-0.79779 69.001 1.9713 5.1735 21.019-31.053 8.4672-43.916 12.17-22.313-0.10568-44.693 0.49315-66.962-0.92739zm-110.14-75.307c-6.9307-11.859 8.8709-12.938 16.782-11.686 23.567 0.56774 47.404-1.5635 70.745 1.68 8.6251 19.846-28.097 9.7897-39.495 12.32-15.286 3e-5 -30.572 0-45.858 1e-5 -0.72477-0.77148-1.4496-1.543-2.1743-2.3144zm167 0c-8.9674-17.217 25.452-10.063 36.249-11.658 9.8005-4.0986 30.671 6.5606 12.044 11.804-15.483 2.9326-33.454 6.3192-48.293-0.14539zm-166.72-35.14c-6.5026-19.701 28.509-8.5646 40.22-11.54 25.06-0.0107 50.12-3e-3 75.18-5e-3 9.8205 8.5407-2.1654 17.215-11.3 14h-101.65c-0.81818-0.81818-1.6364-1.6364-2.4545-2.4546zm167.24 0.42966c-7.5571-19.537 28.623-10.074 40.552-11.968 18.158-4.839 18.831 18.485 0.31915 13.728-13.557 0.18015-27.608 1.481-40.872-1.7598zm-167.62-36.61c-6.5643-11.8 9.1304-12.473 16.884-11.365 23.571 0.57099 47.414-1.5721 70.756 1.6867 8.7173 19.915-28.016 9.7565-39.395 12.313-15.391-3.1e-4 -30.782-6e-5 -46.172-1.4e-4 -0.69086-0.87829-1.3817-1.7566-2.0726-2.6349zm167.1 0.32041c-8.116-18.121 28.658-9.5834 40.182-11.61 14.366-4.8165 23.031 12.407 4.254 12.686-14.34 2.0242-30.91 5.1695-44.436-1.076zm-166.72-38.14c-7.7473-11.833 8.4227-12.769 16.222-11.545h99.178c9.8205 8.5407-2.1654 17.215-11.3 14h-101.65c-0.81818-0.81818-1.6364-1.6364-2.4545-2.4546zm167.18 0.38197c-7.0515-19.483 27.795-12.319 39.855-11.438 12.667-1.4376 22.666 11.232 4.5954 12.183-14.385 2.1624-30.669 5.0545-44.451-0.74541zm-167.46-36.242c-6.9307-11.859 8.8709-12.938 16.782-11.686h68.695c13.97 18.961-20.203 13.373-31.087 13.997-17.405 6e-3 -34.811 2e-3 -52.216 3e-3 -0.72477-0.77148-1.4496-1.543-2.1743-2.3144zm167 0c-8.116-18.121 28.658-9.5834 40.182-11.61 14.366-4.8165 23.031 12.407 4.254 12.686-14.34 2.0242-30.91 5.1695-44.436-1.076zm-222.17-73.348c-9.5728-10.088-17.184-28.273 5.0191-23.727 98.352-1.6828 196.75-2.43 295.11-0.90387 9.3259-1.8363 23.88 24.801 20.383 2.1423-1.3479-12.031-12.92-17.466-23.567-15.368-103.42-0.16831-206.84-0.33662-310.26-0.50493-15.37 3.7045-21.374 25.443-7.3653 34.714 5.7618 4.1849 13.907 5.0177 20.684 3.6471z"/>
  </g>
</svg>
