<svg version="1.1" viewBox="0 0 300.75 300.53" xmlns="http://www.w3.org/2000/svg">
  <g transform="translate(-6.1247 -6.2337)">
    <path d="m130.31 304.43c-55.162-8.7368-102.33-51.533-117.62-105.06-16.508-52.359-1.2708-113.07 38.811-150.8 40.827-41.172 106.31-53.401 159.83-31.901 51.081 18.91 88.864 67.94 94.418 122.09 8.2617 63.404-29.636 128.57-87.711 154.54-27.194 12.62-58.246 16.455-87.728 11.118zm40.789-2.0156c54.39-4.7527 103.55-42.984 122.17-94.197 19.889-50.304 8.9529-111.2-28.326-150.66-36.021-41-95.981-57.856-148.22-42.51-52.822 13.958-95.071 59.864-104.75 113.62-12.671 61.003 19.54 126.95 73.959 156.49 25.704 14.421 55.88 20.49 85.168 17.25zm-31.589-8.1642c-8.1792-13.054 16.814-12.355 7.5486-0.44291-2.0031 1.7682-5.4689 2.5446-7.5486 0.44291zm6.6139-4.5569c-5.525-14.722-8.2099 13.779 0 0zm25.144 3.2067c0.37313-11.66 10.184 4.8378 0 0zm-44.458 3e-3c-13.661 1.9235-0.15584-23.282-3.6332-4.9692 2.7778 9.0112 8.799-15.093 7.1362-0.69524-0.73802 1.6806-0.74456 5.5944-3.503 5.6644zm-19.5-1.7586c-0.39058-6.8195 9.5805-20.432 4.2746-6.1942-0.4289 0.87355-3.5845 10.882-4.2746 6.1942zm91.5-3.6942c5.1296-1.1037 7.5733-4.3454-1.0133-3.7446-7.8342-9.5392 16.673-5.6781 1.996-4.3291-3.6084 2.5647 15.407 3.7545 3.8131 8.5887-1.3424 0.33956-3.7399 0.9943-4.7958-0.51496zm-103-1c4.1933-3.5236 1.4402 3.607 0 0zm3.0774-6.75c5.0141-14.682 5.3662 3.3006-1.0064 2.982zm115.42 3.2364c2.9919-5.6593-3.0773-17.916 3.9201-5.6585 3.4155 3.0938-1.4647 6.8253-3.9201 5.6585zm-127-5.4864c-12.943-0.80305 6.2759-22.063-2.3218-6.1395-1.2903 11.451 13.841-11.581 6.8149 2.561-0.23306 0.0532-3.9264 7.1912-4.4931 3.5785zm150-8.8c2.9151-5.2088-6.828-15.961 2.8686-6.1479 4.4581 2.1712-0.22203 8.6031-2.8686 6.1479zm-14-1.7c2.5664-4.6844 2.1881 4.5062 0 0zm-155.55-2.9329c-6.6222-12.249 15.314 1.9555 5.2895-6.3835-7.6528-6.47 13.272 1.315 2.7683 7.4859-2.3637 2.0785-6.4246 1.74-8.0577-1.1024zm5.548-0.53188c-5.5879-7.4661-5.0175 4.2386 0 0zm172.27-8.2852c-8.8813-8.1041 13.893-12.525 4.2847-0.54987 1.1548 4.7751 8.3501-9.1604 3.6178 2.1449-2.3783 3.0564-6.1576 0.77676-7.9026-1.595zm3.7771-3.8356c0.81822-9.5265-6.7196 6.8939 0 0zm12.301-5.1644c-0.13674-4.1102-14.072-10.376-1.4845-6.3453 4.7512 0.63766 11.746 10.316 1.4845 6.3453zm-215.14-3.2405c-7.2324-8.7201 6.7613-12.773 10.985-7.3002 9.596-3.5166-8.3196 11.51-10.985 7.3002zm4.8604-2.5446c7.0388-14.454-13.382 3.3403 0 0zm215.12-7.584c-13.898-9.479 15.163 5.6488 3.0943-6.0709-7.533-10.509 16.683 7.2733 0.0761 7.5169l-1.5081-0.56861zm-230.18-4.1308c5.0413-6.684 15.87-6.2037 3.6298-0.37764-0.48899-0.18848-3.3394 2.3277-3.6298 0.37764zm58.998-8.8807c-11.679-2.0816-35.322-6.0152-30.433-22.487 7.6794-10.428 15.875-21.797 20.677-32.611 12.171-20.707 26.952-41.018 31.865-64.931-0.68403-8.8525-5.7704-17.237 3.4369-23.912 4.2081-7.4637-14.793-11.123-0.39296-15.163 8.2011 4.5011 24.65 26.844 26.447 6.3754-0.96289-6.0554 4.903-20.584 4.3658-6.1265-1.8582 8.0286-2.1254 18.237 5.3748 5.8654 13.043-7.787-11.688 15.121-7.6293 20.608 10.636-7.6761 5.7945 11.701 17.018 12.736 30.348 22.229 61.242 43.74 91.35 66.275 7.6567 13.13-11.881-0.38196-15.534-4.5958-28.544-20.871-57.027-41.867-85.965-62.171-4.0267 0.5224 4.9708 11.224-2.1518 15.157 5.8977 8.5927 3.5366 24.153-9.8659 18.107-9.5713-10.447 10.814-17.409 2.4387-27.363 11.986-6.0629-5.4238-22.642-8.0625-11.787 0.56199-6.4308-8.0555-23.864-13.793-17.15 4.8212 5.2366 9.2826 10.928-1.1414 5.4403-14.24 1.4149 5.0395 18.135-1.9503 26.953 0.51322 13.595-0.0292 24.286 5.5157 37.725 2.5582 12.809 8.3707 25.288 8.5478 38.375 3.1782 8.4144 16.992 26.06 4.5986 32.709-14.168 5.4024-30.009 3.8532-44.715 1.973zm44-15.928c-5.9812-22.842-12.556-45.549-18.68-68.409 0.38121 22.272-0.86455 44.923 3.3303 66.87 3.6965-0.12741 14.533 7.2549 15.35 1.5389zm-20.155-15.357c1.5987-13.245-1.5954-24.121-1.3186-38.179-1.089-8.1001 3.3401-23.827-3.5222-27.447-8.2738 10.06-14.983 22.128-20.796 33.336-4.5669 9.651-12.589 18.602-16.28 28.093-6.5911 6.979-7.9155 16.895 4.5925 14.415 11.384-2.3208 31.936 8.0059 37.34-0.43009 0.10598-3.2618 0.0684-6.5266-0.0162-9.7883zm-51.845 9.8405c-3.3497-2.1176-4.2048 4.9383 0 0zm86.042-89.003c0.65599-14.348-8.8988 6.1677 0 0zm-122.04 109.03c3.6052-7.257 23.953-6.0384 8.8943-2.3488-2.3098 0.02-7.4069 5.2671-8.8943 2.3488zm242.9-1.794c-8.9918-8.0863 10.144-14.731 5.5553-0.59602 2.3459-2.8791 2.6555-10.827 4.0912-2.0747-1.1567 5.1742-5.9571 4.915-9.6465 2.6707zm3.0992-4.6535c-5.3489-9.8194-2.1915 9.4982 0 0zm-251.44-5.7225c-6.2917-13.626 19.655-8.5346 8.6088 0.99555-5.1342-4.3815-11.744-7.6006-4.24 0.3918-0.6466 2.2609-3.9413-0.38248-4.3688-1.3874zm8.8935-2.6969c-3.6295-10.127-6.1654 3.2332 0 0zm252.02-4.1654c-1.2499-4.0687-15.585 3.0391-5.7231-3.1402 7.2558-1.3992-8.102-7.0467 4.2403-4.2215 7.29 0.42305 14.055 7.2345 2.3346 3.5835 0.52123 2.1252 2.5227 8.788-0.85182 3.7782zm-265.82-10.744c-3.385-7.7073 2.7351-8.3896 1.5263-1.2719 8.8558 3.3293 4.7469-5.3859 4.9894-7.3106 9.2697 4.2732-0.49315 14.275-6.5157 8.5825zm-2.4102-16.421c-8.1547-14.824 22.059-8.173 6.3169 0.80482-2.6629-5.3484-7.827-10.364-3.8541-1.3426 1.2904 1.6923-1.8904 2.9218-2.4628 0.53777zm8.3145-2.846c-1.6475-9.2404-6.0023 2.9824 0 0zm262.8-0.40112c1.6111-10.962 10.344 5.7103 0 0zm-4.9807-27.056c-4.7578-10.68 5.2517-9.4726 8.3533-2.988-4.2898-14.75 8.8783 5.4817-4.5597 3.8209 1.3254-0.0701-4.8843 1.1141-3.7937-0.83293zm3.7402-3.6453c-7.0356-10.04-0.88657 9.5317 0 0zm-269.76 0.70142c1.6111-10.962 10.344 5.7104 0 0zm263.39-13.583c-8.9297-14.311 18.987-6.961 6.4726-2.0288 4.7133-9.7048-11.878-2.8913-3.3868 2.6081l-0.54456 0.39636zm-256.58-12.632c-9.6255-3.423-2.305-4.0667 2.187-2.702-4.0076-12.435 3.2166 2.2611 9.6205-1.8132-9.6192 2.5295-3.7929 3.7445-2.2284 7.0031-3.3248-0.10775-6.4988-1.3526-9.579-2.4878zm250.33-3.2978c-4.9967-7.9451 1.2092-12.367 7.2502-5.4895-4.4125-6.7436 0.47287-8.0662 3.256 0.41682-2.5297 2.7135-6.7712 5.1756-10.506 5.0726zm3.536-4.9344c-6.6346-8.6854-1.2525 7.5433 0 0zm-242.39-5.557c0.88519-5.0111-1.3789-13.243-3.0032-3.9987-6.754 0.9605 4.6994-13.112 10.46-2.5049-1.3646 3.0517-2.2342 10.162-7.4563 6.5036zm3.8584-3.8321c-2.4651-6.4089-3.045 7.0639 0 0zm223.17-0.33334c-3.4899-2.803 22.767-11.294 10.194-3.4488-3.1035 1.4372-6.6038 4.1545-10.194 3.4488zm15.886-8.2479c0.19117-5.3935 4.5115 2.3083 0 0zm-234.46-4.1585c-12.674-5.595 6.8033-15.457 9.1032-3.6549-10.408-7.444-12.082-0.79039-4.6374 5.7057-1.7189 0.08706-3.1692-1.1158-4.4658-2.0508zm216.91 1.206c4.5716-6.7534 15.924-7.1015 3.4545-0.1899-0.49043 0.08807-3.3081 2.1629-3.4545 0.1899zm11.15-7.0829c2.8157-3.7815 1.5352 3.0529 0 0zm-17.9-2.1492c-2.2504-6.4079-11.89 2.663-3.6592-6.5131 11.266-12.105 18.534 8.8165 3.6592 6.5131zm5.1786-3.4722c4.8382-14.152-13.802 5.9358 0 0zm-203.7-3.3577c-9.7009-1.9641-4.7622-12.938-0.88667-4.2046 4.3471 1.7645 11.44 9.9658 0.88667 4.2046zm8.9332-6.7375c-0.1541-5.4339 4.4294-13.305-2.8621-4.4092-2.8751-18.287 23.588 5.6739 2.8621 4.4092zm5.1529-4.0936c-1.9186-6.9872-5.4836 8.9234 0 0zm159.93-4.3199c-8.8509-13.016 17.097-11.424 6.4642-2.6121-17.268-8.9196 8.8318 8.1746-6.4642 2.6121zm7.25-5.8129c-6.0228-8.9294-4.2979 4.5727 0 0zm-158.21 1.6333c-8.104-5.9638 4.8285-13.883 0.90127-2.8805 2.9632 2.5769 3.2925 8.7273-0.90127 2.8805zm12.849-4.4341c-2.5405-5.3841 6.6691 0.02074 0 0zm127.26-2.8633c5.7108-11.07-4.6996-3.2084-7.4444 0.93889 0.25714-18.637 21.967-4.1179 6.0133 1.9725zm-119-7.1632c-5.964-6.3992 8.0988-10.112 2.3286-2.5053 1.3378 4.9698 2.8229 11.713-2.3286 2.5053zm103.11-2.3167c9.3644-19.566-3.468 16.854 0 0zm-89.301 1.4178c-1.3228-3.4492 11.068-2.5675 0.17547-4.6042-10.231-6.8889 15.795-6.6133 0.38203-3.0265 9.2199-0.09467 10.776 9.6765-0.5575 7.6307zm78.098 0.0984c-1.4959-5.9391 9.0233-22.395 4.1326-7.5998-1.2429 1.5138-0.9419 9.1614-4.1326 7.5998zm-10.034-2.0337c3.2554-8.9296-4.6189-14.232-5.2487-2.4896-7.4803 1.07 5.049-19.843 8.0279-5.2228-5e-3 1.5941 0.12971 8.7204-2.7792 7.7124zm-24.207-4.0168c-8.4184-10.871 14.195-13.935 8.3889-1.2343-1.8412 2.468-6.044 3.5841-8.3889 1.2343zm5.9286-4.4423c-5.7347-13.458-5.5331 12.782 0 0zm42.692 0.9387c3.1999-4.0243 3.3832 4.225 0 0zm-63.233-1.4752c0.42527-12.699 11.065 5.093 0 0z"/>
  </g>
</svg>
