<svg version="1.1" viewBox="0 0 206.66 176.86" xmlns="http://www.w3.org/2000/svg">
  <g transform="translate(-9.1703 -24.068)">
    <path d="m80.29 199.91c-9.4405-3.5621-16.41-13.746-15.46-23.936h-35v-65h10v56h26.087c6.0083-6.3628 12.809-13.739 22.413-13 9.6034-0.73797 16.405 6.6353 22.413 13h26.087v-91h-39v-10h49v19h34.554c11.482 11.494 22.964 22.988 34.446 34.481v56.519c-5.1661 0.31894-10.666-0.77407-15.581 0.79346-0.0325 8.6154-4.6557 17.236-12.667 21.059-10.271 5.8647-24.719 3.2134-30.815-7.4193-5.7833-3.0519-0.61022-14.739-6.6566-14.433h-38.281c1.9992 16.715-16.454 28.6-31.54 23.936zm12.869-9.2997c11.125-3.6174 11.518-20.618 1.2557-25.476-8.5344-4.7755-19.998 2.2175-19.464 12.032-0.79215 9.395 9.3637 17.573 18.209 13.444zm90.903-1.8007c10.942-6.9308 4.7255-26.798-8.594-24.92-11.006-0.0284-17.554 14.944-9.7024 22.805 4.5985 5.0344 12.745 6.629 18.296 2.1148zm-24.938-27.125c7.7559-8.9731 22.347-10.723 31.406-2.6958 2.9387 3.5907 12.666 11.913 15.3 6.3543v-27.369h-44v-43h-15v72c4.8908 0.57818 9.2939-1.2424 12.294-5.2897zm46.706-35.448c-5.2606-9.7983-14.34-17.1-22.207-24.824-3.7526-4.9609-14.053-10.521-11.75 0.733-0.0819 8.9424-0.0272 17.885-0.0432 26.828 11.028-0.24908 22.162 0.61901 33.104-0.66833 0.88997-0.27423 0.93139-1.3318 0.89648-2.0692zm-167.21-24.129c-20.366-4.7055-33.558-27.461-28.278-47.532 3.8094-18.365 21.977-32.268 40.786-30.328 19.686 0.77153 37.518 17.67 37.494 37.734 1.4695 19.822-14.055 39.121-33.959 41.198-5.3505 0.70427-10.828 0.29343-16.043-1.0722zm20.648-9.8783c17.966-5.7354 25.735-29.783 14.75-45.053-8.973-15.141-31.781-18.292-44.521-6.1474-12.408 9.8531-13.969 29.458-3.808 41.438 7.6539 10.108 21.673 14.373 33.579 9.7628zm-18.433-32.755v-12.5h10v15h15v10h-25v-12.5z"/>
  </g>
</svg>
