<svg version="1.1" viewBox="0 0 304.28 304.07" xmlns="http://www.w3.org/2000/svg">
  <g transform="translate(-67.361 -79.467)">
    <path d="m209.87 79.552c-9.0579 3.2766-26.249 25.692-10.285 29.861 10.06-5.6467 24.586-18.112 11.514-29.105zm8.8613 18.023c-16.891 7.9691-25.933 29.563-19.428 47.235-1.7802 10.64-6.5083 21.597-10.916 32.31-2.2348 7.3679-4.4273 7.8516-6.5696 0.16622-3.8937-12.864 3.8636-31.827-13.241-39.119-12.642-7.0672-29.015-7.6854-42.276-2.3873 6.8176 11.471 17.479 23.32 26.079 34.675 7.7568 13.081 31.384 11.584 17.172-5.643 10.491 9.352 13.061 26.818 13.302 40.909-0.0125 14.828 5.464 28.928 7.661 43.315-13.464-2.2886-12.632-19.034-21.391-26.972-22.671-23.238-62.333-19.958-86.843-1.3512-6.6581 4.7342-24.348 20.407-4.9485 18.896 22.555 4.069 39.42 22.692 62.472 25.628 12.77 1.901 32.297 4.9117 39.373-8.208-6.8689-11.567-28.319-15.976-34.01-21.765 23.439 4.3856 47.264 17.542 55.718 41.132 11.769 31.371 16.197 66.966 6.3158 99.421-9.1962 10.176 1.4157 7.4417 8.659 7.7152 12.05 3.2906 13.767-6.089 13.483-16.678 2.1023-24.277-1.8009-50.336 11.235-72.318 8.5619-15.98 24.108-28.937 42.021-32.455-8.7517 7.3024-19.612 13.899-26.748 23.609-9.917 8.3204-14.391 25.317 2.0083 28.867 22.543 5.4374 44.156-8.0621 62.288-20.019 13.33-9.9034 28.102-19.371 45.291-19.667 14.925-3.0307-6.458-20.115-10.82-26.315-22.984-22.771-62.958-33.283-90.827-13.236-13.533 9.1144-16.936 25.557-21.177 40.118-6.4974 9.7626-14.167 22.592-20.149 30.431-0.92493-24.472-20.287-44.563-20.216-69.432-0.80034-16.453 9.6614-32.912 23.598-40.322-9.3828 7.8014-24.294 30.221-0.80462 26.28 20.355-5.958 30.557-27.294 48.288-37.677 7.3849-9.3304-18.67-12.126-25.555-12.597-18.376-0.6739-41.878 9.8426-42.754 30.655 1.9238 10.253-4.7277 19.846-8.4191 28.518-10.224-25.296-6.9909-57.731 12.511-77.905 0.1922-1.2635-10.342 1.144-2.7956-5.0451 12.738-8.4843 19.266-22.861 16.237-38.09-0.74637-4.1617-0.38514-9.6559-3.8238-12.678zm-27.438 12.227c-8.7579 5.6365-1.2992 33.501 2.9845 28.842-3.9857-8.3542 8.4135-27.463-2.9845-28.842z"/>
  </g>
</svg>
