<svg version="1.1" viewBox="0 0 199.41 200.74" xmlns="http://www.w3.org/2000/svg">
  <g transform="translate(-.29708 .3716)">
    <path d="m170.5 199.32c-11.93-4.0086-17.849-16.428-26.085-25.024-10.688-12.669-21.112-25.931-32.111-38.094-9.9753 4.6-20.164 9.7597-31.451 10.255-34.079 3.3431-69.292-19.534-77.899-53.097-10.048-34.232 9.419-73.632 42.311-87.092 13.525-5.6919 29.008-7.1142 43.243-3.6539-4.1419 5.4408-10.164 15.443-17.73 18.353-22.946 1.8145-44.26 19.026-48.609 42.002-5.3966 23.109 7.0513 48.664 28.76 58.4 19.607 9.9194 45.05 5.7314 60.192-10.297 6.8578-6.0584 20.655-4.2581 27.172-4.0619-6.1587 9.1614 9.1798 13.843 13.959 19.957 14.291 12.342 29.797 23.414 43.016 36.923 10.894 13.261 0.32957 35.229-16.356 36.394-2.8309 0.26745-5.7112-0.0777-8.4112-0.96322zm-54.267-102.91c-0.75816-10.861-12.056-15.61-20.471-9.1292-12.277-0.24164-10.014-12.892-7.9967-20.725-0.94971-9.6336-16.758-8.3945-13.997-19.674 1.9319-8.6107 17.946-6.4324 14.264-18.519-7.3844-8.1669 2.4004-22.373 12.096-14.912 9.5503 4.4518 13.845-6.2676 17.726-12.249 11.119-6.3679 12.533 8.3134 18.771 12.912 7.713 4.8075 17.252-8.1079 22.808 2.9142 4.1808 7.2012-6.8925 17.23 3.0451 22.668 9.6503 0.55308 14.364 15.369 3.8251 18.481-11.059 2.1787-8.7639 14.322-5.1066 21.455-3.2714 15.759-21.12-1.8294-28.024 9.0091-0.72824 10.573-8.675 10.276-16.94 7.7683zm18.589-22.338c14.707-6.6016 19.673-26.966 10.134-39.822-9.0948-14.816-32.447-14.883-42.769-1.3647-10.594 12.28-6.8161 33.538 8.0055 40.697 7.5076 4.1214 16.977 4.408 24.63 0.48972zm-18.301-6.9139c-14.001-4.2374-16.301-25.728-3.572-32.799 11.117-7.3519 28.17 0.25967 28.282 14.074 1.4882 13.115-12.402 23.846-24.71 18.726z"/>
  </g>
</svg>
