<svg version="1.1" viewBox="0 0 441.23 337.76" xmlns="http://www.w3.org/2000/svg">
  <g transform="translate(-12.985 -76.089)">
    <g transform="translate(2.1045 2.1045)">
      <path
        d="m349.69 242c-27.736-7.4039-49.898-31.166-55.831-59.182-7.21-29.915 4.0224-63.861 29.312-81.952 22.501-16.876 54.078-21.709 79.895-9.7007 32.705 14.164 54.51 51.377 47.846 86.88-5.1284 29.989-28.534 55.731-57.909 63.689-14.047 4.0477-29.236 4.3352-43.314 0.26624zm31.333-50.132v-15.291c10.444-0.25043 20.889-0.50087 31.333-0.7513v-20c-10.444-0.25042-20.889-0.50085-31.333-0.75129v-30.582h-20v30.667h-30.667v21.333h30.667v30.667h20v-15.291z"
        fill="#fed11e" />
      <path
        d="m64.612 407.63c-15.167-10.161-12.755-31.397-17.223-47.086-5.4683-31.194-10.23-62.525-16.618-93.55-17.567-0.03172-21.175-19.385-19.311-33.494-4.7268-22.465 20.574-23.921 36.19-23.094 13.352-0.30058 26.705-0.5553 40.058-0.83455 21.189-36 42.378-72 63.567-108-4.1663-14.06 5.7025-32.941 22.532-26.17 19.81 9.1647 7.4364 30.893-5.4539 39.291-19.912 30.421-39.508 61.195-56.382 93.413 14.621 3.7254 31.683 1.3264 47.299 2.1124 34.795 0.0375 69.59 0.0131 104.39 0.0201-19.545-32.006-37.156-65.231-57.808-96.534-19.85-5.6487-23.263-37.901 1.4136-38.128 17.177-0.47268 14.497 17.781 17.032 28.539 20.79 35.374 41.581 70.749 62.371 106.12 14.592-3.4763 17.359 14.309 27.446 20.923 14.22 12.517 33.114 19.874 52.143 19.132 6.6875 15.771-20.554 14.224-28.393 19.097-8.3145 31.827-11.438 64.852-17.788 97.138-4.0229 14.158-2.1448 34.327-17.358 42.01-7.114 5.528-16.614 2.0057-24.925 2.9932-69.076 0.0134-138.15 0.0268-207.23 0.0402-1.9833-1.3138-3.9666-2.6275-5.95-3.9413zm39.74-22.958c5.8712-3.7832 1.9607-11.798 3.0859-17.635-0.36875-21.915 1.0413-43.945-1.239-65.759-7.5909-15.362-23.865 0.93586-18.61 13.756 0.22701 22.477-1.2562 45.135 1.0232 67.497 2.4734 6.1414 11.461 6.2917 15.74 2.1405zm42.789 0.8234c5.8507-3.0727 1.7373-11.331 2.9634-16.811-0.34498-22.446 0.95645-44.989-1.1309-67.353-7.0302-15.465-22.605 1.2375-17.404 13.447-0.24332 22.879-0.0876 45.761-0.13189 68.641 4.3983 3.639 10.551 5.9583 15.703 2.0756zm44.297-0.591c4.6831-24.25 2.8601-49.536 2.3464-74.174 5.9217-18.464-23.613-20.209-19.369-1.3244-0.57975 24.815-1.9946 50.182 2.453 74.652 3.4125 4.3994 10.667 4.806 14.57 0.8465zm42.895 0.46c4.39-24.882 2.5558-50.697 2.069-75.918 4.2269-20.448-24.35-15.459-18.042 2.8916-0.42035 24.099-2.4218 48.884 2.411 72.566 3.6115 3.2738 9.7516 3.5529 13.562 0.46zm43.772-0.46c4.7345-24.524 2.8846-50.099 2.3166-75.015 3.6538-23.544-27.221-13.527-19.706 5.574-0.049 22.816-1.4056 46.12 2.8191 68.594 3.4125 4.3994 10.667 4.806 14.57 0.8465z"
        fill="#0e5258" />
    </g>
  </g>
</svg>
