<svg version="1.1" viewBox="0 0 178.04 250.44" xmlns="http://www.w3.org/2000/svg">
  <g transform="translate(-200.98 -67.781)">
    <path d="m278.84 317.12c-36.845-5.268-68.728-34.88-75.964-71.495-5.2839-24.043 0.70515-49.998 15.426-69.652 5.4353-10.324 2.004-22.726 3.044-33.908-2.1792-9.8932 2.2485-25.444 14.53-17.695 4.6986 6.5323-2.5152 11.062-0.53567 18.811 0.35864 3.446 6.8956 0.71377 9.828 1.586h100.17c0.48838-5.764-0.37929-11.871-2.5517-15.627 3.4757-13.599 21.241-3.9791 16.486 7.8544 0.56687 11.646-0.95158 23.499 1.2008 35.008 6.0698 10.902 13.329 21.525 15.908 34.021 12.016 45.957-18.252 98.68-64.76 109.86-10.693 2.6544-21.919 3.0109-32.783 1.2305zm28.122-19.912c36.855-7.5704 61.211-48.623 52.292-84.755-6.4464-30.246-34.915-53.477-65.759-54.362-28.756-2.1006-57.104 15.808-68.077 42.347-13.106 28.122-3.7046 63.784 20.48 82.829 16.785 13.916 39.914 18.875 61.064 13.942zm-44.422-27.64c-3.2115-10.38 8.5036-21.082 4.7977-31.601-5.3438-7.3824-22.506-11.679-20.279-21.481 9.8487-4.503 22.588 1.963 31.249-4.7406 5.0683-7.6722 3.8092-22.128 12.758-25.75 6.4104 7.5255 7.7969 17.997 11.373 27.072 1.6951 2.8084 7.0911 0.6538 10.224 1.5337 7.2889 0.76981 15.927-1.0036 21.999 3.4764-3.1705 9.1907-14.722 12.572-20.937 19.733-4.1961 10.472 6.8564 20.97 4.8892 31.963-8.7537 2.9009-16.578-9.4494-24.534-12.987-10.792-3.3481-17.642 10.491-27.295 13.443-1.3862 0.64205-3.1981 0.57738-4.2439-0.6617zm-31.426-164.05c-5.0941-12.199-10.604-24.277-15.407-36.568 9.8429-2.2333 20.636-0.4893 30.839-0.93621 9.6582 0.08469 19.316 0.16937 28.975 0.25406 9.8996 23.111 19.912 46.176 29.724 69.323-8.0452 4.3343-20.216 1.1816-29.859 2.1772h-29.624c-4.8824-11.417-9.7649-22.833-14.647-34.25zm78.565 30.5c-4.9699-12.562-11.325-24.622-15.526-37.452-0.23403-8.5852 5.5108-15.933 8.258-23.862 1.476-3.4799 2.2218-8.0579 7.0654-6.4735 18.177 0.03904 36.389-0.85174 54.538 0.16876 0.46074 6.9118-6.8696 16.743-9.1463 24.655-6.6399 15.573-13.288 31.143-19.933 46.714-7.8029-0.33679-15.847 0.8445-23.454-0.91553l-0.71673-0.6665z"/>
  </g>
</svg>
