<svg version="1.1" viewBox="0 0 135.71 111.87" xmlns="http://www.w3.org/2000/svg">
  <g transform="translate(-23.145 -19.064)">
    <path d="m26.439 127.35c-5.5138-4.4686-2.3538-12.139-2.7265-18.154 0.97199-10.077-0.7606-20.162-0.32344-30.223 3.6455-5.2878 6.3557-10.864 7.8504-17.244 4.8736-6.4536-5.3313-10.391-4.343-17.111-0.32857-7.2323 9.0961-8.9164 13.829-5.0557 3.5293 1.0385 8.2923 10.85 9.6886 3.0196 2.2809-6.5665 7.9826-10.767 13.645-14.208 0.08101-4.8722 6.4973-9.0161 7.9253-2.2471 4.2951 5.6509 12.085 0.66175 16.062-3.002 10.1-7.4223 25.959-4.3604 32.208 6.6401 1.7078 4.4404 5.1491 12.725 10.39 6.4649 4.002-4.5411 10.96-9.2635 16.901-5.5132 5.2513 4.348 1.6957 11.94-2.024 16.107-1.3247 5.1179 4.1883 9.8499 3.4973 15.346-0.67508 5.2886 0.35025 10.089 6.3284 10.945 4.9858 4.8726 3.1942 12.633 3.1949 18.879-1.0666 9.8285 0.8608 19.672 0.0817 29.483-0.81377 7.7948-9.9426 8.5549-16.048 8.9772-22.774 1.0006-45.586 0.0828-68.374 0.35948-14.259-0.23806-28.59 0.48028-42.794-0.97626-1.891-0.25103-3.7149-1.0044-4.9684-2.4872zm124.4-3.9852c2.051-4.9409 1.2846-10.807 0.83076-16.083-2.245-5.3254-10.942-1.9109-15.932-3.1533-33.348-0.52627-66.724-0.77449-100.06 0.38201-7.5657-1.27-5.3008 8.4347-5.5058 13.177-1.548 8.0939 6.8805 5.8756 11.901 6.188 35.692 0.26538 71.396 0.43046 107.08-0.36074l1.1541-0.0728zm-109.7-6.9996c-4.3843-8.1745 10.55-3.971 2.5043 1.3237-1.0091 0.50753-1.8856-0.73387-2.5043-1.3237zm96 0c-4.4442-5.333 6.839-7.5554 4.4529-0.87684-0.7582 1.9976-3.1696 3.174-4.4529 0.87684zm14.46-28.548v-9.5h-121c-0.10961 6.0544-0.74339 12.14-0.07152 18.174 6.0049 1.6204 12.509 0.76892 18.715 1.1175 34.119 0.11176 68.237-0.18777 102.36-0.29174v-9.5zm-111.11 1.5701c-2.7234-6.8616 9.4396-4.1067 3.7613 0.92011-1.1997 0.88733-3.2539 0.66047-3.7613-0.92011zm96 0c-2.7234-6.8616 9.4396-4.1067 3.7613 0.92011-1.1997 0.88733-3.2539 0.66047-3.7613-0.92011zm-67.592-23.761c4.2419-5.2688-1.5265-9.9869-6.196-11.946-4.879-2.8239-12.626-2.1187-12.378 4.8327-5.833 1.804-14.242 0.50531-14.445 9.3252 0.28172 5.7513 9.6768 3.5242 14.023 3.7313 6.2046-0.70511 12.914-1.2394 18.192-4.8719zm40.187 4.4412c-0.56419-9.2009-11.29-13.318-19.308-12.725-6.9702 0.06688-13.413 5.137-15.44 11.639 4.3632 3.2276 10.983 1.2633 16.288 1.8356 6.1378-0.14159 12.404 0.22492 18.46-0.75001zm33.453-3c1.4272-6.3763-1.6039-15.33-9.2595-15.25-5.1246 1.1282-7.0017-3.1148-8.4657-6.6177-6.0741-1.2135-12.739 1.9041-16.666 6.5536-3.8902 5.2247 6.3364 8.7123 6.4506 14.385 4.6378 5.3393 12.693 5.6458 19.28 5.4195 3.1297-0.41989 7.6122-0.88461 8.6599-4.49zm-56.065-16.725c4.1795-5.3605-3.4644-13.39-8.8933-15.203-5.1116-4.4419-5.7243 8.2708-10.463 1.7072-3.616-3.6101-14.259 7.823-7.6277 9.2305 6.2562 1.1001 11.949 5.1516 16.382 8.8152 3.6717-1.1444 6.936-3.3571 10.602-4.5501zm-43.372 1.898c0.09669-3.9176-10.919-11.356-8.2989-3.9258 0.99254 1.7623 7.4425 8.3021 8.2989 3.9258zm60.54-5.1987c2.6882-5.2219 12.295-5.2558 12.84-10.692-4.0196-8.7037-15.491-13.756-24.11-8.6138-4.9377 2.0595-6.1026 6.5745-1.6548 9.8135 4.3963 3.4687 1.2081 12.865 7.8868 12.944 2.0495-0.44304 3.6986-1.9165 5.0381-3.4517zm34.471-2.8897c3.5921-1.0187 7.8764-11.051 1.0985-6.6654-3.4109 0.98172-8.8832 11.839-1.0985 6.6654z"/>
  </g>
</svg>
