<svg version="1.1" viewBox="0 0 433.79 482.81" xmlns="http://www.w3.org/2000/svg">
  <g transform="translate(-16.107 -10.096)">
    <path d="m92.784 492.03c-13.616-24.615 30.23-13.552 44.489-15.958 20.434-2e-3 40.868-6.2e-4 61.302-1e-3v-122c-13.241-0.54724-35.858 4.8177-33.651-15.741 0.21954-27.486-1.7837-55.367 1.7409-82.607 5.8692-10.919 27.209 0.91874 31.91-7.4025v-74.249c-36.434-0.36243-72.948 0.94154-109.32-1.1289-24.697-15.252-50.376-29.648-73.152-47.523 3.5799-17.287 30.195-23.103 43.383-34.75 10.697-6.1329 20.859-14.113 31.886-19.105 35.733-0.18111 71.466-0.36222 107.2-0.54333 0.42641-17.771-1.0054-35.676 0.88256-53.336 15.83-12.409 44.275-6.4715 63.753-3.9062 6.0895 14.382 2.0332 31.091 3.3626 46.534-3.0803 11 3.9342 12.012 13.13 10.865 30.082-7.5947 22.269 28.226 22.849 46.574-3.3326 18.873 11.523 62.533-21.411 56.32-7.9944-0.10231-18.347-2.5632-14.566 9.1104v67.89h110.59c23.903 15.369 48.895 29.18 71.679 46.183 7.6876 18.335-29.1 24.681-39.995 36.789-18.911 14.148-40.014 23.867-64.196 19.984-26.027 0.081-52.053 0.0304-78.08 0.0446v104c-6.3399-1.496-20.15 4.4782-17-6.5074v-97.493h-34v122c54.532 0.50047 109.15-1.2302 163.61 1.1926 19.501 16.462-21.065 16.29-32.653 15.235-84.578 0.12788-169.19 0.95109-253.75-0.46863zm306.84-172.08c11.335-8.6878 41.33-17.577 13.585-26.57-14.016-8.1165-27.466-18.336-41.829-25.305h-189.8v69h190.59c9.1519-5.7086 18.304-11.417 27.456-17.126zm-192.38 1.4592c-5.7964-14.102 4.3062-14.577 14.951-13.333 5.8601 1.9021 19.792-4.2672 19.382 3.9045 3.0639 10.767-4.122 11.285-13.015 10.096-7.1015-0.0834-14.263 0.21344-21.318-0.66667zm-0.25485-25.703c-5.2427-14.121 6.0724-12.787 15.706-12.191 39.294-0.15134 78.588-0.30269 117.88-0.45403 0.21169 7.9199 2.2184 17.635-9.1104 14.014-41.47-0.53835-83.174 1.3671-124.48-1.3692zm42.588-83.131v-38.5h-34v77h34v-38.5zm36-90v-34.5h-189.98c-18.121 11.652-37.043 22.196-54.246 35.169 18.276 11.139 36.25 24.03 55.032 33.783 63.066 0.0159 126.13 0.0318 189.2 0.0477v-34.5zm-161 10.5c-3.4504-11.424 10.298-5.6487 16.919-7h116.08c0.21482 7.9183 2.2124 17.619-9.1104 14h-123.89v-7zm99-25c-3.4504-11.424 10.298-5.6487 16.919-7 5.5951 1.8338 19.477-4.6195 17.081 5.206 3.5803 11.284-6.5357 8.8713-14.316 8.794-5.8424-1.5865-18.222 3.3645-19.684-2.603v-4.397zm26-58.5c-1.6167-6.4176 3.3176-19.386-2.603-21.5h-31.397v43h34v-21.5z"/>
  </g>
</svg>
