<svg version="1.1" viewBox="0 0 428.06 240.24" xmlns="http://www.w3.org/2000/svg">
  <g transform="translate(-15.972 -15.381)">
    <path d="m115.01 200.28c-0.41825-17.762 0.98827-35.701-1.158-53.34-13.283-5.1183-27.181-11.26-38.678-20.395-24.005-18.779-47.876-41.358-57.927-70.889-8.0927-21.766 24.546-36.648 35.601-15.621 12.377 21.573 28.487 41.617 50.37 54.157 26.224 16.742 57.308 21.742 86.708 29.996 41.019 12.232 76.082 43.721 89.685 84.689 1.3877 13.619 22.239 45.267-2.5103 45.295-15.952 3.5533-33.684 1.6888-32.4-18.312-5.2194-16.5-12.382-33.595-25.97-44.915-3.3595 11.606-1.0688 25.012-1.7214 37.386v25.842h-102v-53.892zm189.59 47.192c-3.7845-38.254-20.518-75.119-47.624-102.48 6.1764-13.003 34.868-14.51 50.262-19.79 40.367-8.9446 80.622-31 99.56-69.31 6.2594-19.801 42.762-14.459 36.511 8.0553-7.6959 30.064-31.839 52.951-55.973 70.878-12.181 12.796-41.828 11.195-36.182 34.925-0.26671 28.138-0.0968 56.278-0.14496 84.416h-45.724c-0.22879-2.2331-0.45759-4.4663-0.68638-6.6994zm-13.566-134.84c-28.59-6.6266-40.713-45.565-21.667-67.59 16.296-21.865 52.746-20.23 67.496 2.4582 15.898 20.496 6.2164 52.692-17.278 62.584-8.8167 4.1986-19.134 5.2452-28.551 2.548zm-133.92-8.5429c-28.797-5.1177-45.729-41.744-29.705-66.694 13.937-26.098 54.279-29.901 72.608-6.5027 21.644 22.542 8.9143 63.855-20.627 72.129-7.1751 2.2694-14.914 2.5304-22.276 1.0671z"/>
  </g>
</svg>
